<svg width="70" height="70" viewBox="0 0 70 70" fill="none" xmlns="http://www.w3.org/2000/svg">
<g filter="url(#filter0_d_562_6324)">
<circle cx="35" cy="31" r="31" fill="#519FFF"/>
<path fill-rule="evenodd" clip-rule="evenodd" d="M35.1935 44.8339C37.6784 44.8304 39.4842 44.799 40.611 44.7397C41.8082 44.6767 42.8479 44.4982 43.73 44.2041C44.7801 43.8261 45.6938 43.2485 46.4709 42.4714C47.248 41.6943 47.8256 40.7806 48.2037 39.7305C48.4977 38.8483 48.6762 37.8087 48.7392 36.6115C48.8023 35.4143 48.8338 33.4505 48.8338 30.7201L48.8329 29.7887C48.8285 27.5408 48.8078 25.898 48.7708 24.8602C48.6867 23.642 48.4977 22.5919 48.2037 21.7097C47.8256 20.6596 47.248 19.7459 46.4709 18.9688C45.6938 18.1917 44.7801 17.6141 43.73 17.2361C42.8479 16.942 41.8082 16.7635 40.611 16.7005C39.4138 16.6375 37.45 16.606 34.7196 16.606L34.2457 16.6063C31.7608 16.6098 29.955 16.6412 28.8282 16.7005C27.631 16.7635 26.5914 16.942 25.7092 17.2361C24.6591 17.6141 23.7454 18.1917 22.9683 18.9688C22.1912 19.7459 21.6136 20.6596 21.2356 21.7097C20.9415 22.5919 20.763 23.6315 20.7 24.8287C20.637 26.0259 20.6055 27.9897 20.6055 30.7201L20.6058 31.194C20.6093 33.6789 20.6407 35.4847 20.7 36.6115C20.763 37.8087 20.9415 38.8483 21.2356 39.7305C21.6136 40.7806 22.1912 41.6943 22.9683 42.4714C23.7454 43.2485 24.6591 43.8051 25.7092 44.1411C26.5914 44.4772 27.631 44.6767 28.8282 44.7397C30.0254 44.8027 31.9892 44.8342 34.7196 44.8342L35.1935 44.8339ZM36.146 42.3132L33.2981 42.3132C31.8157 42.31 30.6509 42.2891 29.8037 42.2506C28.2495 42.1666 27.1153 41.9986 26.4012 41.7465C25.141 41.2425 24.2379 40.3393 23.6918 39.0371C23.4398 38.323 23.2717 37.1888 23.1877 35.6346C23.1457 34.7105 23.1247 33.4083 23.1247 31.728L23.1252 29.2995C23.1284 27.817 23.1492 26.6522 23.1877 25.8051C23.2717 24.2089 23.4398 23.0747 23.6918 22.4026C24.1959 21.1004 25.099 20.1973 26.4012 19.6932C27.1153 19.4411 28.2495 19.2731 29.8037 19.1891C30.7279 19.1471 32.0301 19.1261 33.7103 19.1261L36.1388 19.1265C37.6213 19.1297 38.7861 19.1506 39.6332 19.1891C41.2295 19.2731 42.3636 19.4411 43.0357 19.6932C44.3379 20.1973 45.2411 21.1004 45.7452 22.4026C45.9972 23.0747 46.1652 24.2089 46.2492 25.8051C46.2912 26.6872 46.3122 27.9894 46.3122 29.7117L46.3118 32.1402C46.3086 33.6227 46.2877 34.7875 46.2492 35.6346C46.1652 37.1888 45.9972 38.323 45.7452 39.0371C45.2411 40.2973 44.3379 41.2004 43.0357 41.7465C42.3636 41.9986 41.2295 42.1666 39.6332 42.2506C38.8244 42.2891 37.6624 42.31 36.1472 42.3132L36.146 42.3132ZM35.7266 42.3136C35.8693 42.3136 36.0091 42.3135 36.146 42.3132L35.7266 42.3136ZM43.4461 24.3561C43.131 24.6922 42.7425 24.8602 42.2804 24.8602C41.8183 24.8602 41.4193 24.6922 41.0832 24.3561C40.7472 24.0201 40.5791 23.621 40.5791 23.1589C40.5791 22.6968 40.7472 22.2978 41.0832 21.9617C41.4193 21.6257 41.8183 21.4577 42.2804 21.4577C42.7425 21.4577 43.1415 21.6257 43.4776 21.9617C43.8136 22.2978 43.9816 22.6968 43.9816 23.1589C43.9396 23.621 43.7611 24.0201 43.4461 24.3561ZM34.718 37.9662C36.0202 37.9662 37.2278 37.6407 38.341 36.9896C39.4542 36.3385 40.3363 35.4564 40.9874 34.3432C41.6385 33.23 41.9641 32.0223 41.9641 30.7201C41.9641 29.4179 41.6385 28.2103 40.9874 27.0971C40.3363 25.9839 39.4542 25.1018 38.341 24.4507C37.2278 23.7996 36.0202 23.474 34.718 23.474C33.4158 23.474 32.2081 23.7996 31.0949 24.4507C29.9817 25.1018 29.0996 25.9839 28.4485 27.0971C27.7974 28.2103 27.4719 29.4179 27.4719 30.7201C27.4719 32.0223 27.7974 33.23 28.4485 34.3432C29.0996 35.4564 29.9817 36.3385 31.0949 36.9896C32.2081 37.6407 33.4158 37.9662 34.718 37.9662ZM31.3807 34.0601C32.3048 34.9842 33.418 35.4463 34.7202 35.4463C36.0224 35.4463 37.1356 34.9842 38.0597 34.0601C38.9839 33.1359 39.4459 32.0228 39.4459 30.7206C39.4459 29.4184 38.9839 28.3052 38.0597 27.3811C37.1356 26.4569 36.0224 25.9949 34.7202 25.9949C33.418 25.9949 32.3048 26.4569 31.3807 27.3811C30.4566 28.3052 29.9945 29.4184 29.9945 30.7206C29.9945 32.0228 30.4566 33.1359 31.3807 34.0601Z" fill="white"/>
</g>
<defs>
<filter id="filter0_d_562_6324" x="0" y="0" width="70" height="70" filterUnits="userSpaceOnUse" color-interpolation-filters="sRGB">
<feFlood flood-opacity="0" result="BackgroundImageFix"/>
<feColorMatrix in="SourceAlpha" type="matrix" values="0 0 0 0 0 0 0 0 0 0 0 0 0 0 0 0 0 0 127 0" result="hardAlpha"/>
<feOffset dy="4"/>
<feGaussianBlur stdDeviation="2"/>
<feComposite in2="hardAlpha" operator="out"/>
<feColorMatrix type="matrix" values="0 0 0 0 0 0 0 0 0 0 0 0 0 0 0 0 0 0 0.25 0"/>
<feBlend mode="normal" in2="BackgroundImageFix" result="effect1_dropShadow_562_6324"/>
<feBlend mode="normal" in="SourceGraphic" in2="effect1_dropShadow_562_6324" result="shape"/>
</filter>
</defs>
</svg>
